<?xml version="1.0" standalone="no"?>
<!DOCTYPE svg PUBLIC "-//W3C//DTD SVG 20010904//EN"
 "http://www.w3.org/TR/2001/REC-SVG-20010904/DTD/svg10.dtd">
<svg version="1.0" xmlns="http://www.w3.org/2000/svg"
 width="192.000000pt" height="192.000000pt" viewBox="0 0 192.000000 192.000000"
 preserveAspectRatio="xMidYMid meet">

<g transform="translate(0.000000,192.000000) scale(0.100000,-0.100000)"
fill="#000000" stroke="none">
<path d="M883 1716 c-40 -22 -71 -45 -70 -50 2 -5 102 -66 222 -136 l220 -127
5 -261 5 -262 75 43 75 43 0 269 0 269 -50 29 c-27 16 -66 39 -86 51 -128 76
-308 176 -315 175 -5 -1 -42 -20 -81 -43z"/>
<path d="M595 1546 c-77 -45 -165 -96 -195 -113 -30 -17 -70 -39 -87 -49 l-33
-19 0 -99 0 -98 23 14 c54 36 428 248 436 248 9 0 115 -55 136 -70 6 -4 81
-49 168 -98 l157 -91 0 97 0 97 -33 19 c-17 10 -52 30 -77 44 -25 13 -113 65
-197 113 -83 49 -153 89 -155 89 -1 -1 -66 -38 -143 -84z"/>
<path d="M1480 1196 c0 -265 0 -266 -22 -279 -13 -8 -99 -58 -193 -112 -93
-54 -185 -107 -203 -118 l-34 -20 49 -27 c26 -15 64 -37 85 -48 l36 -21 226
132 226 131 0 266 0 266 -37 21 c-21 11 -59 33 -85 48 l-48 27 0 -266z"/>
<path d="M555 1260 c-93 -55 -194 -112 -222 -127 l-53 -27 0 -266 1 -265 82
-47 82 -47 3 263 2 262 112 65 c62 35 137 79 167 96 31 18 82 47 114 64 31 18
57 35 57 38 0 10 -145 91 -161 90 -8 0 -90 -45 -184 -99z"/>
<path d="M587 1013 l-77 -46 2 -264 3 -265 40 -22 c22 -12 69 -39 105 -60 36
-21 81 -48 100 -58 19 -11 74 -42 122 -70 l87 -50 63 36 c110 61 109 60 59 87
-61 34 -99 55 -152 87 -25 15 -94 54 -152 87 l-107 60 0 263 c0 144 -3 262 -7
261 -5 0 -43 -21 -86 -46z"/>
<path d="M740 665 l0 -94 73 -42 c39 -22 113 -65 162 -94 50 -29 113 -65 140
-80 28 -15 55 -32 62 -37 7 -6 25 -2 50 11 21 11 52 27 68 36 17 9 102 58 190
109 l160 93 3 96 c1 54 1 97 -1 97 -5 0 -204 -114 -343 -196 -51 -30 -99 -54
-107 -54 -13 0 -367 198 -422 236 -11 8 -23 14 -27 14 -5 0 -8 -43 -8 -95z"/>
</g>
</svg>
